<?xml version="1.0" encoding="UTF-8" standalone="no"?>
<svg
   xmlns:dc="http://purl.org/dc/elements/1.1/"
   xmlns:cc="http://creativecommons.org/ns#"
   xmlns:rdf="http://www.w3.org/1999/02/22-rdf-syntax-ns#"
   xmlns="http://www.w3.org/2000/svg"
   viewBox="0 0 612.9325 683.42755"
   height="683.42755"
   width="612.9325"
   xml:space="preserve"
   version="1.1"
   id="svg2"><metadata
     id="metadata8"><rdf:RDF><cc:Work
         rdf:about=""><dc:format>image/svg+xml</dc:format><dc:type
           rdf:resource="http://purl.org/dc/dcmitype/StillImage" /><dc:title></dc:title></cc:Work></rdf:RDF></metadata><defs
     id="defs6" /><g
     transform="matrix(1.25,0,0,-1.25,-188.53375,724.21408)"
     id="g10"><g
       style="fill:#ffffff"
       transform="scale(0.1,0.1)"
       id="g12"><path
         id="path14"
         style="fill:#dd137b;fill-opacity:1;fill-rule:evenodd;stroke:none"
         d="m 6409.46,919.234 2.25,-1.3 0,169.906 -983.16,567.63 -542.14,313 -733.94,-423.84 c -141.19,-81.49 -240.08,-83.61 -387.6,1.69 l -61.44,35.5 -264.03,152.41 0,-1192.902 122.49,-70.703 59.88,-34.594 c 255.76,-147.734 427.13,-144.008 671.81,-2.683 l 1273.22,735.062 839.89,-454.406 2.77,205.23 z m -3288.17,998.626 -217.87,125.73 -46.77,27.02 -46.76,26.98 c -205.14,118.46 -264.24,195.7 -264.24,426.7 l 0,435.09 0,646.78 c 0,190.91 50.87,306.38 224.84,407.09 l 75.04,43.61 3.29,1.85 6.02,3.51 6.1,3.47 3.03,1.77 8.97,5.2 6.01,3.5 242.34,140.03 0,1205.71 c -140.07,-80.44 -279.83,-161.37 -419.56,-242.42 l -0.99,-0.56 -1.64,-0.96 -368.9,-214.49 -8.7,-5.02 C 2180.34,4876.35 2039.28,4794.21 1898,4712.38 1596.38,4537.63 1508.36,4337.6 1508.36,4006.71 l -0.09,-1121.1 0,-754.16 c 0,-400.38 102.32,-534.34 457.96,-739.66 l 546.95,-315.82 88.41,-51 88.41,-51.009 0,-0.043 0,0 314.17,-181.332 117.12,-67.586 0,1192.86 z m 318.11,2482.26 218.96,126.56 4.93,2.86 2.08,1.17 71.14,40.22 c 173.71,97.94 311.01,81.23 466.97,-11.61 314.21,-186.87 632.88,-366.25 949.86,-548.49 163.5,-93.96 221.04,-184.75 221.04,-382.41 l 0,-646.7 0,-173.62 1037.33,-598.89 0,357.55 0,357.51 0,1121.11 c 0,342.57 -99.72,500.05 -383.06,662.89 -549.45,315.94 -1101.88,626.73 -1646.52,950.69 -270.53,160.98 -508.41,189.86 -809.55,20.09 l -73.95,-41.78 -3.11,-1.82 -1.48,-0.78 -54.64,-30.96 0,-1203.59" /><path
         id="path16"
         style="fill:#ffffff;fill-opacity:1;fill-rule:evenodd;stroke:none"
         d="m 3121.31,3000.37 0,-258.04 c -0.02,-136.97 34.98,-182.79 156.66,-253.04 l 187.11,-107.99 379.25,-218.95 c 87.47,-50.53 146.08,-49.27 229.79,-0.91 l 568.89,328.45 1768.72,-1021.18 0,359.63 -1612.99,931.26 -0.02,253.95 0,383.54 c 0,117.2 -34.07,171.03 -131.03,226.79 -187.95,108.09 -376.95,214.43 -563.28,325.26 -92.53,55.03 -173.96,64.94 -276.92,6.84 -192.04,-108.31 -382.11,-220.13 -572.92,-330.68 -103.16,-59.78 -133.26,-128.25 -133.28,-241.44 l 0.02,-383.49" /></g></g></svg>
