<?xml version="1.0" standalone="no"?>
<!DOCTYPE svg PUBLIC "-//W3C//DTD SVG 20010904//EN"
 "http://www.w3.org/TR/2001/REC-SVG-20010904/DTD/svg10.dtd">
<svg version="1.0" xmlns="http://www.w3.org/2000/svg"
 width="300.000000pt" height="300.000000pt" viewBox="0 0 300.000000 300.000000"
 preserveAspectRatio="xMidYMid meet">
<metadata>
Created by potrace 1.11, written by Peter Selinger 2001-2013
</metadata>
<g transform="translate(0.000000,300.000000) scale(0.100000,-0.100000)"
fill="#000000" stroke="none">
<path d="M1399 2861 c-66 -21 -158 -70 -160 -85 -5 -42 -3 -596 3 -596 3 0 39
19 80 43 165 98 190 95 433 -48 86 -50 114 -66 214 -123 255 -143 244 -123
245 -447 l1 -239 125 -73 c69 -40 132 -76 140 -80 8 -4 47 -26 85 -48 92 -54
165 -95 170 -95 7 0 0 1022 -7 1046 -17 59 -43 100 -90 145 -28 27 -58 49 -65
49 -7 0 -13 4 -13 8 0 4 -12 13 -27 19 -16 7 -47 23 -69 37 -75 44 -282 164
-341 197 -32 18 -139 80 -238 137 -99 58 -193 113 -210 122 -82 46 -187 58
-276 31z"/>
<path d="M950 2619 c-63 -38 -126 -75 -140 -82 -25 -13 -220 -126 -340 -198
-131 -77 -181 -143 -207 -269 -7 -37 -5 -1119 2 -1160 23 -123 82 -181 325
-318 19 -11 76 -43 125 -72 108 -63 143 -83 193 -111 20 -12 63 -37 96 -56 36
-22 61 -32 65 -25 3 5 6 139 5 297 l0 287 -25 19 c-13 10 -27 19 -31 19 -18 0
-184 112 -199 133 -32 44 -36 93 -35 427 1 306 3 338 20 373 26 52 68 84 218
167 21 11 41 28 46 38 8 17 10 588 2 595 -3 2 -57 -27 -120 -64z"/>
<path d="M1440 1952 c-100 -51 -319 -184 -340 -207 -24 -26 -25 -28 -26 -228
-1 -111 2 -216 8 -234 11 -37 39 -59 178 -140 203 -118 218 -125 251 -118 17
4 85 39 152 77 67 39 135 78 152 88 l30 17 110 -65 c60 -36 153 -89 205 -119
52 -30 109 -62 125 -72 17 -10 48 -28 70 -41 22 -12 85 -48 140 -80 55 -32
116 -67 135 -77 19 -11 51 -30 71 -42 l37 -22 0 91 1 91 -32 20 c-18 10 -44
25 -59 32 -16 6 -28 15 -28 19 0 5 -4 8 -9 8 -5 0 -49 23 -98 51 -48 28 -104
60 -123 71 -188 107 -438 254 -450 265 -12 11 -15 47 -16 186 -1 95 -6 184
-12 198 -13 33 -31 46 -220 154 -84 48 -168 89 -185 91 -18 2 -47 -4 -67 -14z"/>
<path d="M1920 916 c-19 -13 -55 -34 -80 -48 -25 -14 -98 -56 -163 -93 -65
-37 -133 -71 -151 -75 -43 -9 -82 4 -196 69 -49 28 -91 51 -93 51 -1 0 -2
-136 -2 -302 l0 -301 98 -51 c89 -46 104 -51 160 -50 76 1 91 5 153 39 76 41
496 283 541 311 13 8 26 15 30 16 5 1 28 14 52 30 27 16 49 24 55 19 6 -4 47
-27 91 -51 44 -23 123 -65 175 -93 52 -28 104 -56 115 -64 11 -7 22 -13 25
-13 3 0 6 42 8 93 l2 92 -77 45 c-106 62 -108 63 -140 81 -15 8 -146 84 -290
167 -143 84 -265 152 -270 151 -4 0 -24 -10 -43 -23z"/>
</g>
</svg>
