<?xml version="1.0" encoding="UTF-8" standalone="no"?>
<!-- Created with Inkscape (http://www.inkscape.org/) -->

<svg
   xmlns:dc="http://purl.org/dc/elements/1.1/"
   xmlns:cc="http://creativecommons.org/ns#"
   xmlns:rdf="http://www.w3.org/1999/02/22-rdf-syntax-ns#"
   xmlns:svg="http://www.w3.org/2000/svg"
   xmlns="http://www.w3.org/2000/svg"
   xmlns:sodipodi="http://sodipodi.sourceforge.net/DTD/sodipodi-0.dtd"
   xmlns:inkscape="http://www.inkscape.org/namespaces/inkscape"
   version="1.1"
   id="svg4504"
   xml:space="preserve"
   width="955.38129"
   height="260.9393"
   viewBox="0 0 955.38129 260.9393"
   sodipodi:docname="QUARTIC6.svg"
   inkscape:version="0.92.1 r"
   inkscape:export-filename="/home/alex/quartic_highres.png"
   inkscape:export-xdpi="1000.01"
   inkscape:export-ydpi="1000.01"><metadata
     id="metadata4510"><rdf:RDF><cc:Work
         rdf:about=""><dc:format>image/svg+xml</dc:format><dc:type
           rdf:resource="http://purl.org/dc/dcmitype/StillImage" /><dc:title /></cc:Work></rdf:RDF></metadata><defs
     id="defs4508" /><sodipodi:namedview
     pagecolor="#ffffff"
     bordercolor="#666666"
     borderopacity="1"
     objecttolerance="10"
     gridtolerance="10"
     guidetolerance="10"
     inkscape:pageopacity="0"
     inkscape:pageshadow="2"
     inkscape:window-width="1592"
     inkscape:window-height="1723"
     id="namedview4506"
     showgrid="false"
     inkscape:zoom="1.817402"
     inkscape:cx="477.69067"
     inkscape:cy="130.46952"
     inkscape:window-x="0"
     inkscape:window-y="36"
     inkscape:window-maximized="0"
     inkscape:current-layer="g4512"
     fit-margin-top="0"
     fit-margin-left="0"
     fit-margin-right="0"
     fit-margin-bottom="0" /><g
     id="g4512"
     inkscape:groupmode="layer"
     inkscape:label="ink_ext_XXXXXX"
     transform="matrix(1.3333333,0,0,-1.3333333,-50.309332,538.46977)"><g
       id="g4514"
       transform="scale(0.1)"><path
         d="m 7434.16,2800.81 h 108.52 v -16.66 c 0,-3.47 -0.13,-6.74 -0.28,-9.8 0,-8.35 -0.72,-16.59 -1.36,-24.58 -0.88,-23.26 -6.58,-45.42 -16.85,-66.25 -10.65,-21.87 -25.23,-41.2 -42.39,-58.32 -17.16,-17.16 -36.57,-31.6 -58.6,-42 -20.7,-9.63 -42.68,-15.5 -65.41,-17.24 -33.34,-2.77 -66.91,-4.17 -100.4,-5.11 -41.63,-0.89 -83.29,-1.35 -124.92,-1.35 h -1.59 c -41.72,0 -83.46,0.46 -125.22,1.35 -33.89,0.96 -67.86,2.36 -101.6,5.1 -23.28,1.73 -45.86,7.5 -67.15,17.26 -21.98,10.39 -41.42,24.8 -58.56,41.99 -17.15,17.16 -31.58,36.57 -42.01,58.63 -9.72,21.22 -15.52,43.98 -17.25,67.56 -0.89,23.72 -1.66,47.56 -2.14,71.21 -0.87,27.7 -1.07,55.41 -1.07,83.13 v 6.4 c 0,34.08 -0.09,68.17 0.25,102.15 0,13.46 -0.69,32.72 1.45,45.3 2.44,25.13 8.11,49.65 17.72,73.11 9.36,22.07 21.79,42.44 37.43,60.69 16.67,19.19 36.14,35.37 58.79,46.84 22.69,11.78 47.2,17.99 72.55,19.68 34.16,2.62 68.41,4.09 102.7,5.1 39.75,0.87 79.53,1.35 119.3,1.35 h 4.81 c 42.06,0 84.15,-0.44 126.26,-1.35 33.56,-0.95 67.22,-2.32 100.55,-5.1 23.52,-1.75 45.91,-7.9 67.2,-18.21 21.78,-10.9 41.24,-25.37 58.31,-42.42 17.59,-16.77 32.58,-35.89 42.99,-58.03 9.94,-21.4 14.88,-43.92 14.88,-67.55 v -26.26 h -106.24 l -2.1,14.25 c -2.49,17.08 -8.58,32.76 -18.81,46.68 -10.28,14.03 -23.15,25.28 -38.36,33.68 -14.99,8.32 -31.01,12.35 -48.08,12.58 l -198.25,1.59 c -21.54,0 -43.11,-0.07 -64.72,-0.24 -43.89,0 -87.89,-0.7 -131.8,-1.35 -19.46,-0.23 -37.81,-4.9 -54.44,-14.88 -16.38,-10.07 -29.34,-23.31 -39.12,-39.8 -9.96,-17.09 -14.54,-35.43 -14.77,-55.09 v -262.14 c 0.23,-19.8 4.81,-38.1 14.76,-55.16 9.7,-16.43 22.67,-29.69 39.13,-39.57 16.6,-10.19 34.96,-14.92 54.38,-15.16 l 196.06,-1.58 39.75,0.25 c 52.95,0 106.02,0.76 158.98,1.33 19.29,0.24 37.43,4.9 53.97,15.21 16.27,9.75 28.95,22.92 38.36,39.21 9.57,17.28 14.18,35.67 14.39,55.35 v 18.22"
         style="fill:#58686f;fill-opacity:1;fill-rule:nonzero;stroke:none"
         id="path4516"
         inkscape:connector-curvature="0" /><path
         d="m 6572.33,2564.3 h -110.12 v 690.84 h 110.12 V 2564.3"
         style="fill:#58686f;fill-opacity:1;fill-rule:nonzero;stroke:none"
         id="path4518"
         inkscape:connector-curvature="0" /><path
         d="m 6572.33,3324.19 h -110.12 v 174.12 h 110.12 v -174.12"
         style="fill:#58686f;fill-opacity:1;fill-rule:nonzero;stroke:none"
         id="path4520"
         inkscape:connector-curvature="0" /><path
         d="M 6165.1,3149.82 V 2564.3 h -110.13 v 585.52 h -107.19 v 110.13 h 107.31 l 1.6,236.76 h 108.41 v -236.76 h 190.35 V 3149.82 H 6165.1"
         style="fill:#58686f;fill-opacity:1;fill-rule:nonzero;stroke:none"
         id="path4522"
         inkscape:connector-curvature="0" /><path
         d="m 4205.29,2588 c -7.73,-4.4 -15.77,-8.3 -24.15,-11.59 -24.94,-9.84 -51.43,-11.96 -77.8,-15.18 -74.29,-9.12 -150.41,-5.43 -225,-3.32 -39.51,1.13 -78.82,3.38 -117.89,6.43 -49.54,1.82 -91.31,22.78 -126.18,57.65 -17.39,17.36 -31.74,37.12 -42.07,59.56 -9.61,21.33 -15.44,44.03 -17.18,67.66 -0.9,23.92 -1.67,47.96 -2.17,71.81 -0.83,28.84 -1.05,57.7 -1.05,86.57 v 1.66 l 1.67,345.89 h 108.44 V 2777.1 c 0.22,-19.49 4.81,-37.8 14.74,-54.59 9.78,-16.55 22.77,-29.54 39.06,-39.55 16.72,-10.03 35.01,-14.71 54.46,-14.92 l 196.66,-1.6 h 34.78 c 20.5,0.6 40.9,1.19 61.42,1.6 5.79,0.09 14.9,-0.22 20.52,0.86 l 1.28,0.45 1.91,0.2 c 18.16,1.79 35.21,7.07 50.77,16.82 14.51,8.82 26.3,20.64 34.84,35.2 8.79,15.25 12.72,31.55 12.94,49.03 v 484.54 h 110.13 V 2567.5 h -110.13 v 20.5"
         style="fill:#58686f;fill-opacity:1;fill-rule:nonzero;stroke:none"
         id="path4524"
         inkscape:connector-curvature="0" /><path
         d="m 3407.92,2650.09 77.13,-75.25 -78.31,-76.36 -88.42,86.73 c -25.89,-10.8 -53.8,-19.12 -81.67,-20.86 -44.54,-2.79 -89.13,-4.43 -133.69,-5.38 -56.06,-1.47 -112.14,-1.55 -168.14,-1.06 h -3.18 c -37.32,0 -74.64,0.91 -111.91,2.13 -42.36,1.16 -84.76,2.78 -127.27,4.3 -31.08,1.67 -61.14,8.95 -89.37,22.05 -29.12,13.52 -55.14,32.38 -78.32,54.74 -22.54,22.53 -41.4,48.12 -54.82,77.09 -13.1,28.22 -20.38,58.19 -22.07,89.24 -1.8,31.54 -2.75,63.12 -3.49,94.69 -0.87,38.24 -1.32,76.5 -1.32,114.77 v 11.2 c 0,46.95 -0.11,93.91 0.25,140.81 0,16.46 -1.14,43.05 1.47,58.66 3.97,33.13 11.64,65.71 24.32,96.66 12.1,29.6 28.83,56.6 50.07,80.4 21.87,25.11 47.48,46.06 77.5,60.77 30.05,14.59 62.16,22.4 95.46,24.85 43.66,2.96 87.4,5.47 131.12,7.2 36.1,1.48 72.24,2.42 108.38,2.42 53.25,0 106.5,-0.73 159.73,-2.4 48.49,-1.54 97.03,-3.83 145.52,-7.24 30.88,-2.51 60.84,-10.01 88.69,-23.38 28.96,-13.43 54.41,-32.46 76.82,-54.87 46.68,-45.04 73.49,-99.9 77,-164.54 2.67,-32.85 4.12,-65.72 5.1,-98.68 0.88,-39.14 1.35,-78.32 1.35,-117.48 v -3.18 c 0,-46.23 0,-92.54 -1.08,-138.67 -0.34,-21.13 -0.29,-44.1 -2.26,-65.38 -4.62,-36.2 -13.51,-72.13 -28.9,-105.36 -11.78,-25.19 -27.06,-48.21 -45.69,-68.62 z m -801.7,679.34 c -14.72,-15.43 -26.79,-33.2 -34.87,-53.15 -8.34,-19.67 -11.78,-40.79 -11.78,-62.07 V 2843.6 c 0,-20.94 3.6,-41.41 11.81,-60.81 8.09,-19.76 20.23,-37.28 34.78,-52.76 14.65,-15.31 31.45,-27.46 50.93,-35.96 19.22,-8.49 39.77,-12.55 60.69,-13.23 30.67,-0.95 61.38,-1.35 92.12,-1.35 40.05,-0.31 80.11,-0.26 120.15,-0.26 37.21,0 74.43,0.04 111.71,0.26 55.45,0 111.04,0.65 166.6,1.35 4.62,0 9.24,0.15 13.77,0.43 l -45.26,45.26 77.93,78.29 70.2,-70.45 c 11.49,12.95 21.1,27.4 28.1,43.36 9.1,20.98 13.02,43.04 13.02,65.87 v 370.5 c -0.23,28.95 -7.07,56.54 -21.3,81.72 -14.03,24.71 -32.62,44.36 -56.72,59.43 -24.39,15.2 -51.37,22.64 -80.17,23.34 -36.14,1.1 -72.42,1.34 -108.64,1.34 -56.4,0.32 -112.83,0.25 -169.24,0.25 h -9.58 c -43.18,0 -86.42,-0.14 -129.59,0.17 -63.58,0.2 -137.79,0.86 -184.66,-50.92"
         style="fill:#58686f;fill-opacity:1;fill-rule:nonzero;stroke:none"
         id="path4526"
         inkscape:connector-curvature="0" /><path
         d="m 4997.91,2560.94 c -3.75,-0.01 -7.46,-0.09 -10.76,-0.09 -45.16,0.45 -90.42,0.28 -135.58,0.28 h -175.96 c -62.7,0 -118.68,19.34 -164.91,61.99 -21.71,20.06 -38.99,43.52 -50.65,70.69 -11.96,27.6 -17.08,57.16 -17.08,87.14 0,28.3 4.85,56.08 15.92,82.07 10.97,26.8 27.77,50.09 48.15,70.47 20.63,20.64 44.24,37.33 71.26,48.43 26.26,10.9 54.03,16.42 82.39,17.27 28.07,0.88 56.09,1.31 84.11,1.31 33.99,0.3 67.96,0.29 101.97,0.29 h 3.2 c 58.85,0 117.72,0.03 176.51,-0.29 41.22,0 82.4,-0.3 123.59,-1.02 v 45.26 c -0.25,19.77 -4.84,38.48 -14.38,55.68 -9.52,16.71 -22.23,30.21 -38.38,40.5 -16.52,10.4 -34.42,15.08 -53.81,15.29 h -359.74 c -16.97,-0.21 -32.89,-4.44 -47.65,-12.75 -15.41,-8.77 -28.03,-20.33 -38.51,-34.51 -10.55,-14.56 -17.33,-30.5 -20.83,-48.11 l -2.68,-13.41 h -106.97 l 4.71,27.98 c 0.96,23 6.19,44.96 15.92,65.88 10.21,21.73 24.77,40.85 41.69,57.76 17.16,17.16 36.5,31.74 58.3,42.67 21.21,10.28 43.88,16.43 67.34,18.17 30.69,2.49 61.47,4.07 92.3,5.11 32.57,0.84 65.2,1.35 97.79,1.35 h 1.6 c 41.27,0 82.57,-0.47 123.91,-1.35 33.77,-0.96 67.66,-2.39 101.31,-5.1 23.69,-1.75 46.54,-7.95 68.07,-18.11 22.46,-10.81 42.51,-25.22 60.36,-42.25 18.23,-16.65 33.96,-35.84 44.85,-58.24 9.94,-21.39 14.9,-43.98 14.9,-67.61 v -457.51 c 0,-5.43 -0.02,-10.62 -0.27,-15.67 0,-6.73 -0.61,-13.33 -1.47,-20.03 l -1.82,-14.58 h -106.54 v 26.38 c -13.72,-7.18 -28.26,-12.79 -43.09,-17.14 -37.46,-11.28 -70.22,-14.2 -109.07,-14.2 z m 152.16,332.92 h -191.31 c -28.41,0 -56.85,-0.11 -85.31,-0.26 -68.02,0 -136.12,-0.72 -204.22,-1.32 -21.48,0 -42.77,-3.89 -61.99,-13.89 -17.2,-8.83 -30.79,-20.96 -40.78,-37.44 -10.61,-17.93 -14.76,-37.85 -14.98,-58.45 0,-31.25 10.16,-57.45 32.84,-78.74 11.72,-10.32 24.73,-18.17 39.14,-23.7 15.49,-5.56 31.62,-8.17 48,-8.86 24.74,-0.96 49.54,-1.29 74.38,-1.29 35.21,-0.34 70.49,-0.28 105.73,-0.28 75.26,0 200.91,-18.92 262.5,33.9 27.13,22.98 36,55.57 36,90.23 v 100.1"
         style="fill:#58686f;fill-opacity:1;fill-rule:nonzero;stroke:none"
         id="path4528"
         inkscape:connector-curvature="0" /><path
         d="m 5478.62,3257.22 c -9.36,-3.7 -18.44,-8.15 -27.17,-13.19 v 11.11 h -108.49 l -1.67,-690.84 h 110.16 l -1.44,391.27 c 0,33.38 -2.03,66.25 -0.17,99.7 0.63,21.16 5.39,41.4 17.32,58.85 12.28,17.63 30.22,30.01 49.64,38.75 9.38,4.17 20.63,8.02 31.08,8.15 h 0.5 33.92 1.44 48.48 1.44 33.93 0.49 c 10.45,-0.13 21.7,-3.98 31.08,-8.15 19.42,-8.74 37.36,-21.12 49.64,-38.75 11.93,-17.45 16.69,-37.69 17.33,-58.85 1.14,-20.43 1.62,-41.44 0.74,-62.42 h 106.77 l -0.22,97.39 c -0.23,89.42 -90.88,170.09 -179.46,177.28 v 0.43 h -9.5 -0.86 -49.94 -1.44 -48.48 -1.44 -49.94 -0.86 -9.5 v -0.43 c -14.87,-1.2 -29.46,-4.92 -43.38,-10.3"
         style="fill:#58686f;fill-opacity:1;fill-rule:evenodd;stroke:none"
         id="path4530"
         inkscape:connector-curvature="0" /><path
         d="m 2131.68,2293.72 0.81,-0.46 v 60.81 l -351.92,203.18 -194.06,112.04 -262.71,-151.71 c -50.54,-29.17 -85.94,-29.93 -138.74,0.6 l -21.99,12.71 -94.51,54.56 v -427 l 43.84,-25.31 21.44,-12.38 c 91.55,-52.88 152.89,-51.55 240.47,-0.96 l 455.74,263.11 300.64,-162.65 z m -1176.985,357.45 -77.992,45.01 -16.734,9.67 -16.739,9.65 c -73.429,42.41 -94.585,70.06 -94.585,152.74 v 155.74 231.52 c 0,68.33 18.21,109.66 80.48,145.71 l 26.859,15.61 1.18,0.66 2.152,1.26 2.188,1.24 1.086,0.64 3.203,1.86 2.156,1.25 86.746,50.12 v 431.59 c -50.14,-28.8 -100.168,-57.76 -150.179,-86.78 l -0.36,-0.2 -0.59,-0.34 -132.043,-76.78 -3.113,-1.8 C 617.883,3710.16 567.391,3680.76 516.82,3651.46 408.859,3588.91 377.352,3517.31 377.352,3398.88 l -0.032,-401.31 v -269.94 c 0,-143.32 36.621,-191.27 163.926,-264.76 l 195.774,-113.05 31.648,-18.25 31.645,-18.26 v -0.01 0 l 112.457,-64.91 41.925,-24.19 z m 113.865,888.52 78.37,45.3 1.77,1.03 0.75,0.41 25.46,14.4 c 62.18,35.06 111.32,29.08 167.15,-4.15 112.47,-66.89 226.54,-131.1 340,-196.34 58.52,-33.63 79.12,-66.13 79.12,-136.88 v -231.48 -62.15 l 371.31,-214.37 v 127.99 127.97 401.29 c 0,122.63 -35.7,178.99 -137.12,237.28 -196.67,113.09 -394.41,224.34 -589.37,340.3 -96.83,57.62 -181.98,67.96 -289.77,7.19 l -26.47,-14.96 -1.12,-0.65 -0.52,-0.28 -19.56,-11.07 v -430.83"
         style="fill:#db1e7b;fill-opacity:1;fill-rule:evenodd;stroke:none"
         id="path4532"
         inkscape:connector-curvature="0" /><path
         d="m 954.699,3038.66 v -92.37 c -0.008,-49.03 12.524,-65.43 56.081,-90.58 l 66.97,-38.65 135.75,-78.37 c 31.31,-18.09 52.29,-17.64 82.25,-0.33 l 203.64,117.57 633.1,-365.53 v 128.73 l -577.36,333.34 v 90.91 137.28 c 0,41.95 -12.2,61.22 -46.91,81.18 -67.27,38.69 -134.92,76.75 -201.62,116.42 -33.12,19.7 -62.27,23.25 -99.13,2.45 -68.74,-38.76 -136.77,-78.79 -205.07,-118.36 -36.923,-21.4 -47.701,-45.91 -47.709,-86.43 l 0.008,-137.26"
         style="fill:#58686f;fill-opacity:1;fill-rule:evenodd;stroke:none"
         id="path4534"
         inkscape:connector-curvature="0" /></g></g></svg>